<!-- icons.svg -->
<svg xmlns="http://www.w3.org/2000/svg" style="display:none;">
  <!-- GitHub -->
  <symbol id="github" viewBox="0 0 24 24">
    <path d="M12 .297c-6.63 0-12 5.373-12 12 
      0 5.303 3.438 9.8 8.205 11.385.6.113.82-.258.82-.577 
      0-.285-.01-1.04-.015-2.04-3.338.724-4.042-1.61-4.042-1.61 
      -.546-1.387-1.333-1.757-1.333-1.757 
      -1.089-.745.084-.729.084-.729 
      1.205.084 1.84 1.237 1.84 1.237 
      1.07 1.835 2.809 1.304 3.495.997.108-.776.417-1.305.76-1.605 
      -2.665-.305-5.466-1.332-5.466-5.93 
      0-1.31.465-2.381 1.235-3.221-.135-.303-.54-1.523.105-3.176 
      0 0 1.005-.322 3.3 1.23a11.5 11.5 0 0 1 3-.405c1.02.005 
      2.045.138 3 .405 2.28-1.552 3.285-1.23 3.285-1.23 
      .645 1.653.24 2.873.12 3.176.765.84 
      1.23 1.911 1.23 3.221 
      0 4.61-2.805 5.625-5.475 5.92.42.36.81 1.096.81 2.22 
      0 1.606-.015 2.896-.015 3.286 
      0 .315.21.69.825.57C20.565 22.092 24 17.592 24 12.297 
      c0-6.627-5.373-12-12-12"/>
  </symbol>

  <!-- LinkedIn -->
  <symbol id="linkedin" viewBox="0 0 24 24">
    <path d="M20.447 20.452H16.89v-5.569c0-1.327-.027-3.037-1.852-3.037
      -1.853 0-2.136 1.445-2.136 2.939v5.667H9.345V9h3.41v1.561h.049c.476-.9 
      1.637-1.852 3.372-1.852 3.605 0 4.27 2.373 4.27 5.457v6.286zM5.337 
      7.433a1.986 1.986 0 1 1 0-3.973 1.986 1.986 0 0 1 0 3.973zM6.815 
      20.452H3.857V9h2.958v11.452zM22.225 0H1.771C.792 0 0 
      .774 0 1.729v20.542C0 23.226.792 24 1.771 24h20.451C23.2 
      24 24 23.226 24 22.271V1.729C24 .774 23.2 0 22.222 0h.003z"/>
  </symbol>
</svg>
